<svg width="210" height="40" viewBox="0 0 210 40" fill="none" xmlns="http://www.w3.org/2000/svg">
<path d="M6.76056 31H0L6.47887 0H13.2394L6.76056 31ZM34.6479 19.4286C34.6479 26 29.5775 31.4286 22.6761 31.4286C16.7606 31.4286 12.1127 27.4286 12.1127 21.2857C12.1127 14.7143 17.1831 9.28571 24.0845 9.28571C30 9.28571 34.6479 13.2857 34.6479 19.4286ZM18.8732 21C18.8732 23.5714 20.5634 25.2857 22.9577 25.2857C25.6338 25.2857 27.7465 22.8571 27.7465 19.8571C27.7465 17.2857 26.0563 15.5714 23.5211 15.5714C20.9859 15.5714 18.8732 17.8571 18.8732 21ZM56.338 30.1429C55.0704 36.1429 50.7042 40 44.6479 40C40.9859 40 37.7465 39 34.7887 37L37.7465 31.7143C40 33.2857 42.1127 34.1429 44.2253 34.1429C47.3239 34.1429 49.4366 32.4286 50 29.7143L50.1408 29.1429C49.0141 30 47.4648 30.5714 45.493 30.5714C40.4225 30.5714 36.7606 26.7143 36.7606 21.4286C36.7606 16.1429 40.2817 9.28571 48.0282 9.28571C50.5634 9.28571 52.5352 10.1429 53.8028 11.5714L54.2253 9.85714H60.8451L56.338 30.1429ZM52.1127 19.4286C52.1127 17.1429 50.4225 15.4286 48.169 15.4286C45.493 15.4286 43.5211 17.5714 43.5211 20.4286C43.5211 22.7143 45.2113 24.4286 47.4648 24.4286C50 24.4286 52.1127 22.2857 52.1127 19.4286ZM84.2253 19.4286C84.2253 26 79.1549 31.4286 72.2535 31.4286C66.338 31.4286 61.6901 27.4286 61.6901 21.2857C61.6901 14.7143 66.7606 9.28571 73.662 9.28571C79.5775 9.28571 84.2253 13.2857 84.2253 19.4286ZM68.4507 21C68.4507 23.5714 70.1408 25.2857 72.5352 25.2857C75.2113 25.2857 77.3239 22.8571 77.3239 19.8571C77.3239 17.2857 75.6338 15.5714 73.0986 15.5714C70.5634 15.5714 68.4507 17.8571 68.4507 21ZM92.2535 29.1429L90.1408 39.5714H83.3803L89.5775 9.85714H96.0563L95.7746 11.4286C97.0422 10.1429 98.7324 9.28571 100.986 9.28571C105.915 9.28571 109.577 13.7143 109.577 19.1429C109.577 24.4286 105.775 31.5714 98.169 31.5714C95.6338 31.5714 93.662 30.7143 92.2535 29.1429ZM93.8028 20.2857C93.3803 23.4286 95.493 25.2857 97.7465 25.2857C100.563 25.2857 102.535 22.8571 102.535 19.8571C102.535 17 100.563 15.5714 98.5915 15.5714C96.1972 15.5714 94.2253 17.5714 93.8028 20.2857ZM131.831 22.2857C130.282 29.2857 125.775 31.5714 120.845 31.5714C115.634 31.5714 111.972 28.8571 111.972 23.7143C111.972 22.8571 112.113 22 112.254 21L114.507 9.85714H121.268L118.732 21.5714C118.592 22 118.592 22.2857 118.592 22.7143C118.592 24.4286 119.718 25.2857 121.268 25.2857C123.38 25.2857 124.789 23.7143 125.352 21.1429L127.606 10H134.366L131.831 22.2857ZM154.789 15L144.085 25H153.239L151.972 31H133.803L134.789 26L145.634 15.8571H136.901L138.028 9.85714H155.915L154.789 15ZM176.056 15L165.352 25H174.507L173.239 31H154.93L155.915 26L166.761 15.8571H158.028L159.296 9.85714H177.183L176.056 15ZM183.521 31H176.761L183.239 0H190L183.521 31ZM207.465 28.1429C205.493 30.2857 202.535 31.4286 198.732 31.4286C192.535 31.4286 188.873 27.5714 188.873 22.1429C188.873 17 192.254 9.14286 200.986 9.14286C206.197 9.14286 210 12.7143 210 17.8571C210 19.2857 209.577 21.2857 209.155 22.2857H195.352C195.493 24.5714 197.042 25.7143 199.155 25.7143C200.704 25.7143 202.254 25.2857 203.662 24L207.465 28.1429ZM196.056 18.2857H203.521V18.1429C203.521 16 202.254 15 200.423 15C198.169 15 196.901 16.5714 196.056 18.2857Z" fill="#0E0D0D"/>
</svg>
